<svg enable-background="new 0 0 496 496" viewBox="0 0 496 496" xmlns="http://www.w3.org/2000/svg"><path d="m196.664 312h-164.664v-216h208v216h-26z" fill="#ffa64d"/><path d="m256 96h208v96h-208z" fill="#ffa64d"/><g fill="#333"><path d="m0 0v344h256 8 14.032c.44 1.112.896 2.216 1.392 3.328l-15.584 15.584 45.248 45.248 15.584-15.584c1.112.496 2.216.952 3.328 1.392v22.032h-16v16h16v32c0 17.648 14.352 32 32 32s32-14.352 32-32v-32h16v-16h-16v-22.032c1.112-.44 2.216-.896 3.328-1.392l15.584 15.584 45.248-45.248-15.584-15.584c.496-1.112.952-2.216 1.392-3.328h14.032 8 32v-344zm480 16v48h-464v-48zm-104 448c0 8.824-7.176 16-16 16s-16-7.176-16-16v-32h32zm72-136h-17.536l-1.768 5.592c-1.216 3.864-2.856 7.8-4.88 11.672l-2.72 5.208 12.448 12.44-22.624 22.624-12.44-12.448-5.208 2.72c-3.872 2.024-7.808 3.664-11.672 4.88l-5.6 1.776v33.536h-32v-33.536l-5.592-1.768c-3.864-1.216-7.8-2.856-11.672-4.88l-5.208-2.72-12.44 12.448-22.624-22.624 12.448-12.44-2.72-5.208c-2.024-3.872-3.664-7.808-4.88-11.672l-1.776-5.6h-17.536v-32h17.536l1.768-5.592c1.216-3.864 2.856-7.8 4.88-11.672l2.72-5.208-12.448-12.44 22.624-22.624 12.44 12.448 5.208-2.72c3.872-2.024 7.808-3.664 11.672-4.88l5.6-1.776v-17.536h32v17.536l5.592 1.768c3.864 1.216 7.8 2.856 11.672 4.88l5.208 2.72 12.44-12.448 22.624 22.624-12.448 12.44 2.72 5.208c2.024 3.872 3.664 7.808 4.88 11.672l1.776 5.6h17.536zm16 0v-48h-22.032c-.44-1.112-.896-2.216-1.392-3.328l15.584-15.584-45.248-45.248-15.584 15.584c-1.112-.496-2.216-.952-3.328-1.392v-22.032h-64v22.032c-1.112.44-2.216.896-3.328 1.392l-15.584-15.584-45.248 45.248 15.584 15.584c-.496 1.112-.952 2.216-1.392 3.328h-22.032v48h-240v-248h464v248z"/><path d="m32 32h16v16h-16z"/><path d="m64 32h16v16h-16z"/><path d="m96 32h16v16h-16z"/><path d="m360 264c-26.472 0-48 21.528-48 48s21.528 48 48 48 48-21.528 48-48-21.528-48-48-48zm0 80c-17.648 0-32-14.352-32-32s14.352-32 32-32 32 14.352 32 32-14.352 32-32 32z"/><path d="m64 128h144v16h-144z"/><path d="m64 160h144v16h-144z"/><path d="m64 192h144v16h-144z"/><path d="m192 224h16v16h-16z"/><path d="m64 224h112v16h-112z"/></g></svg>