<svg enable-background="new 0 0 64 64" height="512" viewBox="0 0 64 64" width="512" xmlns="http://www.w3.org/2000/svg"><g fill="#f0bc5e"><path d="m21 45h-14v-3c0-2.757 2.243-5 5-5h9z"/><path d="m14 63c-3.86 0-7-3.14-7-7s3.14-7 7-7 7 3.14 7 7-3.14 7-7 7zm0-9c-1.103 0-2 .897-2 2s.897 2 2 2 2-.897 2-2-.897-2-2-2z"/><path d="m14 63c-3.86 0-7-3.14-7-7s3.14-7 7-7 7 3.14 7 7-3.14 7-7 7zm0-9c-1.103 0-2 .897-2 2s.897 2 2 2 2-.897 2-2-.897-2-2-2z"/><path d="m50 63c-3.86 0-7-3.14-7-7s3.14-7 7-7 7 3.14 7 7-3.14 7-7 7zm0-9c-1.103 0-2 .897-2 2s.897 2 2 2 2-.897 2-2-.897-2-2-2z"/><path d="m53 19h-8v-5h8z"/><path d="m46 7h-8v-5h8z"/><path d="m39 19h-8v-5h8z"/></g><path d="m20.92 55c.047.328.08.66.08 1s-.033.672-.08 1h22.16c-.047-.328-.08-.66-.08-1s.033-.672.08-1z"/><path d="m61 31v-6h-4v-9c0-1.654-1.346-3-3-3h-4.184c.112-.314.184-.648.184-1v-8c0-1.654-1.346-3-3-3h-10c-1.654 0-3 1.346-3 3v8c0 .352.072.686.184 1h-4.184c-1.654 0-3 1.346-3 3v9h-4v8h-12.187c-3.306 0-6.116 2.254-6.833 5.481l-2.87 12.915c-.073.328-.11.664-.11 1v1.604c0 1.654 1.346 3 3 3h3.08c-.047-.328-.08-.66-.08-1s.033-.672.08-1h-3.08c-.551 0-1-.449-1-1v-1h4.685c.357-.749.839-1.426 1.425-2h-5.863l2.686-12.085c.511-2.305 2.518-3.915 4.88-3.915h12.187v16h-4.11c.587.574 1.068 1.251 1.425 2h23.37c.178-.372.385-.726.623-1.059.004-.006.008-.011.013-.017.238-.33.5-.641.79-.924h-20.111v-16.279l4-1.333v15.612h32v2h-2-1-3.11c.587.574 1.068 1.251 1.425 2h1.685 1v2h-2.08c.047.328.08.66.08 1s-.033.672-.08 1h2.08c1.103 0 2-.897 2-2v-2h2v-22zm-24 2v4h-6v-4zm-6 6h6v2h-6zm8-6h2v14h-2zm10 8h-6v-2h6zm0-4h-6v-4h6zm-6 6h6v4h-6zm8-10h2v14h-2zm4 6h6v2h-6zm0-2v-4h6v4zm0-21v9h-12v-9c0-.551.449-1 1-1h3 7c.551 0 1 .449 1 1zm-19-4v-8c0-.551.449-1 1-1h10c.551 0 1 .449 1 1v8c0 .551-.449 1-1 1h-3-4-3c-.551 0-1-.449-1-1zm-7 4c0-.551.449-1 1-1h7 3c.551 0 1 .449 1 1v9h-12zm30 11v4h-29.162l-4.838 1.613v-5.613zm-28 16h6v4h-6zm24 4v-4h6v4z"/><path d="m14 53c-1.654 0-3 1.346-3 3s1.346 3 3 3 3-1.346 3-3-1.346-3-3-3zm0 4c-.551 0-1-.449-1-1s.449-1 1-1 1 .449 1 1-.449 1-1 1z"/><path d="m50 53c-1.654 0-3 1.346-3 3s1.346 3 3 3 3-1.346 3-3-1.346-3-3-3zm0 4c-.551 0-1-.449-1-1s.449-1 1-1 1 .449 1 1-.449 1-1 1z"/></svg>