<svg height="512" viewBox="0 0 64 64" width="512" xmlns="http://www.w3.org/2000/svg"><path d="m61.78 18.38a.986.986 0 0 0 -.78-.38h-5.38l-7.73-15.45a.988.988 0 0 0 -.89-.55h-6a1 1 0 0 0 -.89 1.45l7.27 14.55h-30.76l7.27-14.55a1 1 0 0 0 -.89-1.45h-6a.988.988 0 0 0 -.89.55l-7.73 15.45h-5.38a.986.986 0 0 0 -.78.38 1 1 0 0 0 -.19.85l6.79 28.88-5.15 5.15a5 5 0 1 0 7.07 7.07l6.33-6.33h35.93a1 1 0 0 0 .97-.77l8-34a1 1 0 0 0 -.19-.85zm-19.16-14.38h3.76l7 14h-3.76zm-25 0h3.76l-7 14h-3.76zm-8.3 54.92a3.075 3.075 0 0 1 -4.24 0 2.994 2.994 0 0 1 0-4.24l7.78-7.78 4.24 4.24zm6.37-12.02 1.45-1.45a13.407 13.407 0 0 0 1.41 1.41l-1.45 1.45zm.31-9.9a11 11 0 1 1 11 11 11.007 11.007 0 0 1 -11-11zm36.21 15h-33.14l.15-.15a.99.99 0 0 0 .29-.71.967.967 0 0 0 -.29-.7l-.7-.71 1.67-1.68a12.863 12.863 0 0 0 6.81 1.95 13 13 0 1 0 -7.37-23.7l-.66-2.55-1.94.5.9 3.45a12.926 12.926 0 0 0 -2.85 4.14l-2.11-8.09-1.94.5 3.03 11.61a10.883 10.883 0 0 0 -.06 1.14 12.863 12.863 0 0 0 1.95 6.81l-1.68 1.67-.71-.7a1.014 1.014 0 0 0 -1.41 0l-1.67 1.67-6.22-26.45h55.48z"/><path d="m27 46a9 9 0 1 0 -9-9 9.01 9.01 0 0 0 9 9zm0-16a7 7 0 1 1 -7 7 7.009 7.009 0 0 1 7-7z"/><path d="m27 34v-2a5.006 5.006 0 0 0 -5 5h2a3 3 0 0 1 3-3z"/><path d="m11.857 50.142h2.001v2h-2.001z" transform="matrix(.707 -.707 .707 .707 -32.397 24.071)"/><path d="m5.616 54.385h5.999v2h-5.999z" transform="matrix(.707 -.707 .707 .707 -36.64 22.314)"/><path d="m37.115 34.5h23.77v2h-23.77z" transform="matrix(.252 -.968 .968 .252 2.3 73.975)"/><path d="m31.115 34.5h23.77v2h-23.77z" transform="matrix(.252 -.968 .968 .252 -2.205 68.147)"/></svg>