<svg enable-background="new 0 0 64 64" height="512" viewBox="0 0 64 64" width="512" xmlns="http://www.w3.org/2000/svg"><path d="m39 55h-26c-2.757 0-5-2.243-5-5v-19c0-2.757 2.243-5 5-5h26c2.757 0 5 2.243 5 5v19c0 2.757-2.243 5-5 5z" fill="#f0bc5e"/><path d="m26 40c-1.739 0-4.749 1.604-6.44 3.432-1.11 1.2-1.648 2.461-1.557 3.646.086 1.103.598 2.105 1.442 2.822.958.813 2.288 1.215 3.64 1.097 1.63-.14 2.348-1.096 2.776-1.667.043-.059.094-.126.137-.186.048.061.098.128.141.186.429.571 1.146 1.527 2.776 1.667.154.013.308.02.461.02 1.191 0 2.33-.396 3.179-1.116.845-.717 1.356-1.719 1.442-2.822.092-1.185-.446-2.446-1.557-3.646-1.691-1.829-4.701-3.433-6.44-3.433zm5.261 8.375c-.555.47-1.344.703-2.176.628-.737-.063-.993-.403-1.346-.874-.334-.444-.79-1.052-1.654-1.126l-.085-.006-.085.007c-.864.074-1.32.682-1.654 1.126-.353.471-.608.811-1.346.874-.831.075-1.621-.158-2.176-.628-.44-.375-.697-.876-.742-1.453-.061-.776.527-1.588 1.03-2.132 1.498-1.62 4.01-2.791 4.973-2.791s3.475 1.171 4.973 2.79c.503.544 1.091 1.356 1.03 2.132-.045.577-.302 1.078-.742 1.453z"/><path d="m30 34c0-2.206-1.794-4-4-4s-4 1.794-4 4 1.794 4 4 4 4-1.794 4-4zm-6 0c0-1.103.897-2 2-2s2 .897 2 2-.897 2-2 2-2-.897-2-2z"/><path d="m21 38c0-1.654-1.346-3-3-3s-3 1.346-3 3 1.346 3 3 3 3-1.346 3-3zm-4 0c0-.551.448-1 1-1s1 .449 1 1-.448 1-1 1-1-.449-1-1z"/><path d="m34 35c-1.654 0-3 1.346-3 3s1.346 3 3 3 3-1.346 3-3-1.346-3-3-3zm0 4c-.552 0-1-.449-1-1s.448-1 1-1 1 .449 1 1-.448 1-1 1z"/><path d="m55 17c0-8.822-7.178-16-16-16-2.24 0-4.413.485-6.475 1.405-1.996-.895-4.2-1.405-6.525-1.405-8.822 0-16 7.178-16 16h-9v39c0 3.86 3.141 7 7 7h48c3.859 0 7-3.14 7-7v-39zm6 38.865-4-3.333v-33.532h4zm-6-3.334-4 3.333v-36.864h4zm-16.507-45.5c.169-.01.341-.031.507-.031 5.514 0 10 4.486 10 10h-7c0-3.769-1.318-7.232-3.507-9.969zm.507-4.031c7.72 0 14 6.28 14 14h-2c0-6.617-5.383-12-12-12-.721 0-1.459.09-2.2.23-.62-.569-1.275-1.098-1.978-1.565 1.354-.43 2.75-.665 4.178-.665zm-31 58c-2.757 0-5-2.243-5-5v-37h7v4h2v-6c0-7.72 6.28-14 14-14s14 6.28 14 14v6h2v-4h7v37c0 1.958.81 3.728 2.111 5zm48 0c-2.013 0-3.741-1.202-4.533-2.921l4.533-3.777 4.533 3.778c-.792 1.718-2.52 2.92-4.533 2.92z"/><path d="m26 5c-6.617 0-12 5.383-12 12v6h2v-4h20v4h2v-6c0-6.617-5.383-12-12-12zm0 2c.172 0 .34.017.51.026-2.269 2.826-3.51 6.299-3.51 9.974h-7c0-5.514 4.486-10 10-10zm2.828.414c.697.206 1.364.483 1.989.828-2.411 2.256-3.817 5.438-3.817 8.758h-2c0-3.6 1.364-6.977 3.828-9.586zm.172 9.586c0-2.955 1.278-5.668 3.511-7.574 2.132 1.836 3.489 4.547 3.489 7.574z"/></svg>