<svg enable-background="new 0 0 64 64" height="512" viewBox="0 0 64 64" width="512" xmlns="http://www.w3.org/2000/svg"><g fill="#f0bc5e"><path d="m41 62h-6v-11h6z"/><path d="m49 62h-6v-11h6z"/><path d="m57 62h-6v-11h6z"/><path d="m23 62h-19v-19h19z"/></g><path d="m61 41h-4.095l-1.82-18.198c-.102-1.028-.958-1.802-1.99-1.802h-.056c.097-.806.624-1.5 1.409-1.762l1.736-.579c1.685-.561 2.816-2.131 2.816-3.907 0-2.073-1.551-3.829-3.607-4.086l-3.052-.382c-.765-.095-1.341-.748-1.341-1.518 0-.303.089-.597.257-.849l1.189-1.783c.362-.544.554-1.178.554-1.831 0-1.822-1.481-3.303-3.303-3.303h-11.697v2h11.697c.719 0 1.303.584 1.303 1.303 0 .258-.076.508-.219.723l-1.189 1.783c-.387.582-.592 1.258-.592 1.957 0 1.777 1.33 3.283 3.093 3.503l3.052.382c1.057.132 1.855 1.036 1.855 2.101 0 .913-.582 1.721-1.448 2.009l-1.736.579c-1.605.536-2.696 1.989-2.796 3.66h-.901l-.119-.236c-.852-1.705-2.566-2.764-4.472-2.764h-1.528c-1.004 0-1.929-.507-2.482-1.322.308-.58.482-1.236.482-1.926 0-2.073-1.551-3.829-3.607-4.086l-3.052-.382c-.765-.095-1.341-.748-1.341-1.518 0-.303.089-.597.257-.849l1.189-1.783c.362-.544.554-1.178.554-1.831 0-1.822-1.481-3.303-3.303-3.303h-11.697v2h11.697c.719 0 1.303.584 1.303 1.303 0 .258-.076.508-.219.723l-1.189 1.783c-.387.582-.592 1.258-.592 1.957 0 1.777 1.33 3.283 3.093 3.503l3.052.382c1.057.132 1.855 1.036 1.855 2.101 0 .913-.582 1.721-1.448 2.009l-1.736.579c-1.605.536-2.696 1.989-2.796 3.66h-.901l-.119-.236c-.852-1.705-2.566-2.764-4.472-2.764h-2.059c-1.483 0-2.76-1.107-2.97-2.573l-.019-.134c-.349-2.448-2.477-4.293-4.949-4.293h-6.531c-1.654 0-3-1.346-3-3s1.346-3 3-3h3v-2h-3c-2.757 0-5 2.243-5 5s2.243 5 5 5h6.531c1.483 0 2.76 1.107 2.97 2.573l.019.134c.35 2.447 2.478 4.292 4.95 4.292h2.059c1.144 0 2.172.635 2.683 1.658l.081.162c-.204.279-.34.613-.377.981l-1.021 10.2h-26.895c-1.103 0-2 .897-2 2v2c0 1.103.897 2 2 2v24h58v-16c1.103 0 2-.897 2-2v-2c0-1.103-.897-2-2-2zm-6.105 0h-6.79l1.4-14h3.99zm-1.6-16h-3.59l.2-2h3.19zm-15.847-5.762 1.736-.579c.349-.117.668-.285.965-.482.937 1.132 2.341 1.823 3.851 1.823h1.528c1.144 0 2.172.635 2.683 1.658l.081.162c-.204.279-.34.613-.377.981l-1.82 18.199h-6.19l-1.82-18.198c-.102-1.028-.958-1.802-1.99-1.802h-.056c.097-.806.624-1.5 1.409-1.762zm-1.353 3.762.2 2h-3.59l.2-2zm-3.59 4h3.99l1.4 14h-4.895v-2c1.103 0 2-.897 2-2v-2c0-1.103-.897-2-2-2h-1.095zm-29.505 8h30l.001 2h-30.001zm28 4v22h-14v-4h6v-2h-6v-4h6v-2h-6v-6h-2v6h-4v-6h-2v6h-4v-10zm-26 12h4v4h-4zm6 0h4v4h-4zm4 6v4h-4v-4zm-10 0h4v4h-4zm54 4h-26v-14h26zm2-16h-28v-2h28z"/><path d="m43 7h-3v2h3c1.103 0 2 .897 2 2v1c0 2.206 1.794 4 4 4h2v-2h-2c-1.103 0-2-.897-2-2v-1c0-2.206-1.794-4-4-4z"/><path d="m23 9h3c1.103 0 2 .897 2 2v1c0 2.206 1.794 4 4 4h2v-2h-2c-1.103 0-2-.897-2-2v-1c0-2.206-1.794-4-4-4h-3c-2.206 0-4-1.794-4-4v-2h-2v2c0 3.309 2.691 6 6 6z"/></svg>