<svg enable-background="new 0 0 64 64" height="512" viewBox="0 0 64 64" width="512" xmlns="http://www.w3.org/2000/svg"><path d="m7 38h-5v8l.447 1.895 5.446-2.724c.683-.34 1.107-1.025 1.107-1.789v-3.382c0-1.103-.897-2-2-2z" fill="#f0bc5e"/><path d="m32 14h-8l-1 4h10z" fill="#f0bc5e"/><path d="m27 6h2v6h-2z"/><path d="m19.929 7.929h2v5.999h-2z" transform="matrix(.7071 -.7071 .7071 .7071 -1.5979 17.9998)"/><path d="m32.072 9.929h5.999v2h-5.999z" transform="matrix(.7071 -.7071 .7071 .7071 2.5444 28.0001)"/><path d="m14 39h2v7h-2z"/><path d="m20 55h24v2h-24z"/><path d="m58 18h-39.333c-2.025 0-3.837 1.208-4.615 3.077l-3.362 8.068c-.297.711-.848 1.274-1.551 1.587l-5.17 2.298c-1.804.802-2.969 2.595-2.969 4.57v16.4c0 1.654 1.346 3 3 3h8v-2h-8c-.552 0-1-.448-1-1v-3h7v-2h-7v-11.4c0-1.185.699-2.261 1.781-2.741l5.17-2.298c1.172-.521 2.09-1.46 2.584-2.646l3.362-8.068c.468-1.122 1.555-1.847 2.77-1.847h39.333c1.654 0 3 1.346 3 3v26h-2v-25c0-1.103-.897-2-2-2h-24v27h-2v-27h-12.649l-4.351 9.788v5.212h2v-4h13v16h-7v2h20v-2h-7v-16h17v-2h-17v-7h22v7h-3v2h3v16h-3v2h7v3c0 .552-.448 1-1 1h-7.614v2h7.614c1.654 0 3-1.346 3-3v-31c0-2.757-2.243-5-5-5zm-29 13h-12.461l3.111-7h9.35z"/><path d="m37 35h4v2h-4z"/><path d="m23 35h4v2h-4z"/><path d="m53 43v-2h2v-2h-2v-2h-2v2h-2v2h2v2z"/><path d="m16 59c-3.859 0-7-3.141-7-7s3.141-7 7-7 7 3.141 7 7-3.141 7-7 7zm0-9c-1.103 0-2 .897-2 2s.897 2 2 2 2-.897 2-2-.897-2-2-2z" fill="#f0bc5e"/><path d="m48 59c-3.859 0-7-3.141-7-7s3.141-7 7-7 7 3.141 7 7-3.141 7-7 7zm0-9c-1.103 0-2 .897-2 2s.897 2 2 2 2-.897 2-2-.897-2-2-2z" fill="#f0bc5e"/><path d="m16 55c-1.654 0-3-1.346-3-3s1.346-3 3-3 3 1.346 3 3-1.346 3-3 3zm0-4c-.552 0-1 .448-1 1s.448 1 1 1 1-.448 1-1-.448-1-1-1z"/><path d="m48 55c-1.654 0-3-1.346-3-3s1.346-3 3-3 3 1.346 3 3-1.346 3-3 3zm0-4c-.552 0-1 .448-1 1s.448 1 1 1 1-.448 1-1-.448-1-1-1z"/></svg>