<svg enable-background="new 0 0 496 496" viewBox="0 0 496 496" xmlns="http://www.w3.org/2000/svg"><path d="m328 344h112v80h-112z" fill="#f0bc5e"/><path d="m72 288h144v80h-144z" fill="#f0bc5e"/><path d="m232 192h-8v-144h8c8.824 0 16-7.176 16-16v-16c0-8.824-7.176-16-16-16h-176c-8.824 0-16 7.176-16 16v16c0 8.824 7.176 16 16 16h8v144h-8c-13.232 0-24 10.768-24 24v50l-20.472 5.976c-6.784 1.968-11.528 8.288-11.528 15.36v81.328c0 7.072 4.744 13.392 11.52 15.36l20.48 5.976v50c0 10.416 6.712 19.216 16 22.528v1.472c0 17.648 14.352 32 32 32s32-14.352 32-32h64c0 17.648 14.352 32 32 32s32-14.352 32-32v-1.472c9.288-3.312 16-12.112 16-22.528v-224c0-13.232-10.768-24-24-24zm-176-176h176l.008 16h-176.008zm24 32h128v144h-128zm-16 400h-8c-4.408 0-8-3.584-8-8v-224c0-2.192.896-4.184 2.328-5.632 8.216 3.92 13.672 12.24 13.672 21.632zm-48-79.336v-81.328l16-4.664v90.664zm64 111.336c-8.824 0-16-7.176-16-16h32c0 8.824-7.176 16-16 16zm0-32v-216c0-8.912-2.976-17.248-8.048-24h144.088c-5.064 6.752-8.04 15.088-8.04 24v216zm128 32c-8.824 0-16-7.176-16-16h32c0 8.824-7.176 16-16 16zm32-40c0 4.416-3.592 8-8 8h-8v-216c0-9.392 5.456-17.712 13.672-21.632 1.432 1.448 2.328 3.44 2.328 5.632z"/><path d="m475.088 321.112c-3.072-10.24-12.312-17.112-22.992-17.112h-4.648c-3.96-31.52-30.872-56-63.448-56s-59.488 24.48-63.448 56h-4.648c-10.68 0-19.92 6.872-22.992 17.112-13.88 46.264-20.912 94.208-20.912 142.504v8.384c0 13.232 10.768 24 24 24h176c13.232 0 24-10.768 24-24v-8.384c0-48.296-7.032-96.24-20.912-142.504zm-15.328 4.592c11.936 39.784 18.608 80.848 19.96 122.296h-31.72v-128h4.096c3.56 0 6.64 2.288 7.664 5.704zm-27.76-5.704v128h-96v-128zm-48-56c23.736 0 43.448 17.336 47.28 40h-94.56c3.832-22.664 23.544-40 47.28-40zm-75.76 61.704c1.024-3.416 4.104-5.704 7.664-5.704h4.096v128h-31.712c1.344-41.448 8.016-82.512 19.952-122.296zm163.76 154.296h-176c-4.408 0-8-3.584-8-8v-8h192v8c0 4.416-3.592 8-8 8z"/><path d="m352 376h64v16h-64z"/><path d="m96 320h96v16h-96z"/></svg>