<svg enable-background="new 0 0 496 496" viewBox="0 0 496 496" xmlns="http://www.w3.org/2000/svg"><path d="m448 336h-176v-168l64-72h48l64 72z" fill="#ffa64d"/><g fill="#333"><path d="m304 448h112v16h-112z"/><path d="m360 352c-13.232 0-24 10.768-24 24s10.768 24 24 24 24-10.768 24-24-10.768-24-24-24zm0 32c-4.416 0-8-3.584-8-8s3.584-8 8-8 8 3.584 8 8-3.584 8-8 8z"/><path d="m296 352c-13.232 0-24 10.768-24 24s10.768 24 24 24 24-10.768 24-24-10.768-24-24-24zm0 32c-4.416 0-8-3.584-8-8s3.584-8 8-8 8 3.584 8 8-3.584 8-8 8z"/><path d="m400 376c0 13.232 10.768 24 24 24s24-10.768 24-24-10.768-24-24-24-24 10.768-24 24zm24-8c4.416 0 8 3.584 8 8s-3.584 8-8 8-8-3.584-8-8 3.584-8 8-8z"/><path d="m456 0h-192c-22.056 0-40 17.944-40 40v56h-14.248l-23.992 96h-185.76v24l27.432 106.584c-11.416 4.896-19.432 16.232-19.432 29.416 0 17.648 14.352 32 32 32s32-14.352 32-32c0-2.776-.464-5.432-1.136-8h114.272c-.672 2.568-1.136 5.224-1.136 8 0 17.648 14.352 32 32 32 2.776 0 5.432-.464 8-1.136v73.136c0 22.056 17.944 40 40 40h192c22.056 0 40-17.944 40-40v-416c0-22.056-17.944-40-40-40zm-192 16h192c13.232 0 24 10.768 24 24v8h-240v-8c0-13.232 10.768-24 24-24zm-24 48h240v352h-240v-43.056c4.92-5.624 8-12.896 8-20.944 0-13.216-8.048-24.568-19.496-29.448l27.24-104.536.256-26.016h-21.76l12.008-48h25.752c13.232 0 24-10.768 24-24s-10.768-24-24-24h-32zm-17.752 48h49.752c4.416 0 8 3.584 8 8s-3.584 8-8 8h-38.248l-15.992 64h-15.52zm-206.248 96h224v6.976l-2.352 9.024h-21.648v16h17.48l-20.936 80.352c-6.672.728-12.688 3.456-17.488 7.648h-134.112c-4.824-4.216-10.872-6.952-17.584-7.664l-20.864-80.336h177.504v-16h-181.656l-2.344-9.024zm24 160c-8.816 0-16-7.184-16-16 0-8.824 7.184-16 16-16s16 7.176 16 16c0 8.816-7.184 16-16 16zm160-16c0-8.824 7.184-16 16-16s16 7.176 16 16c0 8.816-7.184 16-16 16s-16-7.184-16-16zm256 128h-192c-13.232 0-24-10.768-24-24v-24h240v24c0 13.232-10.768 24-24 24z"/><path d="m311.983 227.743h95.991v16h-95.991z" transform="matrix(-.7071 .7071 -.7071 -.7071 781.2174 147.8947)"/><path d="m371.312 247.032c-9.36 9.36-9.36 24.576 0 33.936 4.68 4.68 10.824 7.024 16.976 7.024 6.144 0 12.288-2.344 16.968-7.024h.008c9.336-9.36 9.336-24.576-.008-33.936-9.368-9.368-24.592-9.352-33.944 0zm22.624 11.312c3.12 3.12 3.12 8.192.008 11.312-3.136 3.136-8.2 3.128-11.32 0-3.12-3.12-3.12-8.192 0-11.312 1.56-1.56 3.608-2.344 5.664-2.344 2.048 0 4.096.784 5.648 2.344z"/><path d="m331.712 231.424c6.152 0 12.296-2.344 16.976-7.016 0-.008 0-.008 0-.008 4.528-4.528 7.032-10.552 7.032-16.968 0-6.408-2.496-12.44-7.032-16.968-9.36-9.36-24.576-9.36-33.952 0-9.344 9.368-9.344 24.584.008 33.936 4.68 4.68 10.824 7.024 16.968 7.024zm-5.656-29.648c1.56-1.56 3.608-2.344 5.656-2.344 2.056 0 4.104.784 5.664 2.344 1.512 1.512 2.344 3.52 2.344 5.656 0 2.144-.832 4.144-2.344 5.648v.008c-3.12 3.12-8.184 3.136-11.32 0-3.12-3.12-3.12-8.2 0-11.312z"/></g></svg>