<svg enable-background="new 0 0 496 496" viewBox="0 0 496 496" xmlns="http://www.w3.org/2000/svg"><g fill="#333"><path d="m394.612 230.16-5.328-15.08 47.984-16.96-31.152-18.688 20.04-53.448-105.984 41.48-5.832-14.912 139.4-54.536-27.96 74.552 48.848 29.312z"/><path d="m239.948 136h16v80h-16z"/><path d="m431.948 248h-144v-144h80c17.648 0 32-14.352 32-32v-8c0-13.232-10.768-24-24-24s-24 10.768-24 24v8h16v-8c0-4.416 3.592-8 8-8s8 3.584 8 8v8c0 8.824-7.176 16-16 16h-80-8v-88h-64v88h-8-80c-17.648 0-32 14.352-32 32v8c0 13.232 10.768 24 24 24s24-10.768 24-24v-8h-16v8c0 4.416-3.592 8-8 8s-8-3.584-8-8v-8c0-8.824 7.176-16 16-16h80v144h-102.224-8.28c-.616-3.336-1.008-6.696-1.24-10.08l-32.256 12.616v93.464h85.728l-128.304 46.184 48.744 29.24-27.96 74.552 165.792-64.864v4.528l26.728 62.36h26.544l26.728-62.36v-35.824l144-56.352zm-200-232h32v72h-32zm-8 88h48v144h-16v-16h-16v16h-16zm-144 160h336v64h-336zm205.84 117.472-7.256 7.256-6.584 6.584v35.048l-16 37.336v-56.384l-8 8-8-8v56.384l-16-37.336v-35.048l-16-16v32.616l-138.208 54.088 20.04-53.448-31.256-18.76 120.536-43.392-6.424-6.416h12.688 196.224l-93.6 36.624v-1.312z"/></g><path d="m323.26 344h-150.624l75.312 75.312z" fill="#ffa64d"/><path d="m318.412 152c-10.52 0-20.816 2.192-30.464 6.152v89.848h110.512c.88-4.768 1.488-9.576 1.488-14.464 0-44.96-36.576-81.536-81.536-81.536z" fill="#ffa64d"/><path d="m207.948 158.152c-9.648-3.96-19.944-6.152-30.464-6.152-44.96 0-81.536 36.576-81.536 81.536 0 4.88.616 9.696 1.488 14.464h110.512z" fill="#ffa64d"/></svg>