<svg enable-background="new 0 0 496 496" viewBox="0 0 496 496" xmlns="http://www.w3.org/2000/svg"><circle cx="296" cy="200" fill="#ffa64d" r="160"/><g fill="#333"><path d="m32 192h16v16h-16z"/><path d="m64 192h16v16h-16z"/><path d="m496 200c0-110.28-89.72-200-200-200-96.584 0-177.392 68.824-195.976 160h-100.024v336h400v-125.232c57.52-35.16 96-98.552 96-170.768zm-355.312 144h-92.688v-72h61.464c9.176 23.688 22.712 45.216 39.664 63.568zm-43.2-168c-.632 5.272-1.072 10.608-1.288 16h-.2v16h.2c.216 5.392.656 10.728 1.288 16h-81.488v-48zm286.512 304h-368v-240h84.024c1.104 5.424 2.48 10.744 4.016 16h-72.04v104h92.688l-16 16h-44.688v16h28.688l-16 16h-44.688v16h28.688l-18.344 18.344 11.312 11.312 18.344-18.344v28.688h16v-44.688l16-16v28.688h16v-44.688l27.312-27.312h28.688v-.112c33.448 25.168 75.008 40.112 120 40.112 31.56 0 61.424-7.376 88-20.456zm-88-96c-47.856 0-91.496-18.376-124.256-48.432l28.408-28.408c25.488 22.824 59.024 36.84 95.848 36.84 28.848 0 56.688-8.496 80.504-24.584l-8.952-13.264c-21.16 14.296-45.904 21.848-71.552 21.848-32.416 0-61.968-12.208-84.544-32.144l28.272-28.272c15.272 12.728 34.888 20.416 56.272 20.416 48.52 0 88-39.48 88-88s-39.48-88-88-88-88 39.48-88 88c0 21.384 7.688 41 20.416 56.272l-28.272 28.272c-19.936-22.576-32.144-52.128-32.144-84.544 0-70.576 57.424-128 128-128s128 57.424 128 128c0 37.728-16.528 73.352-45.36 97.752l10.328 12.216c32.432-27.448 51.032-67.52 51.032-109.968 0-79.4-64.6-144-144-144s-144 64.6-144 144c0 36.824 14.016 70.36 36.84 95.848l-28.408 28.408c-30.056-32.76-48.432-76.4-48.432-124.256 0-101.464 82.536-184 184-184s184 82.536 184 184-82.536 184-184 184zm-16-184c0-8.824 7.176-16 16-16s16 7.176 16 16-7.176 16-16 16-16-7.176-16-16zm-.152 27.464c4.76 2.816 10.232 4.536 16.152 4.536 17.648 0 32-14.352 32-32s-14.352-32-32-32-32 14.352-32 32c0 5.92 1.72 11.392 4.536 16.152l-28.736 28.736c-9.864-12.32-15.8-27.912-15.8-44.888 0-39.704 32.296-72 72-72s72 32.296 72 72-32.296 72-72 72c-16.976 0-32.568-5.936-44.888-15.8z"/><path d="m344 448h16v16h-16z"/><path d="m216 448h112v16h-112z"/></g></svg>