<svg enable-background="new 0 0 496 496" viewBox="0 0 496 496" xmlns="http://www.w3.org/2000/svg"><path d="m496 224v-64h-35.4c-4.072-19.96-12.008-39.144-23.224-56.12l25.016-25.024-45.248-45.248-25.024 25.016c-16.976-11.216-36.16-19.152-56.12-23.224v-35.4h-64v35.392c-3.4.696-6.776 1.496-10.104 2.4l2.104 10.208v120h8c13.256 0 24 10.744 24 24s-10.744 24-24 24c13.256 0 24 10.744 24 24s-10.744 24-24 24c13.256 0 24 10.744 24 24 0 12.352-9.36 22.4-21.352 23.736l.04.536c11.968 1.352 21.312 11.392 21.312 23.728 0 11.112-7.592 20.376-17.848 23.104l1.848 24.896h56v-35.4c19.96-4.072 39.144-12.008 56.12-23.224l25.024 25.016 45.248-45.248-25.016-25.024c11.216-16.976 19.16-36.16 23.224-56.12z" fill="#ffa64d"/><g fill="#333"><path d="m112 320h80v16h-80z"/><path d="m401.288 243.84c8.832-16.168 13.504-34.512 13.504-53.048 0-61.088-49.704-110.792-110.792-110.792-10.96 0-21.672 1.608-32 4.728v-44.728c0-22.056-17.944-40-40-40h-160c-22.056 0-40 17.944-40 40v152.808c-18.232 3.72-32 19.88-32 39.192v80.808c0 52.088 19.856 101.128 56 138.472v44.72h184v-44.688l17.368-17.376c18.88-18.88 29.544-43.736 30.448-70.288 9.624-5.528 16.184-15.784 16.184-27.648 0-9.608-4.336-18.128-11.056-24 3.344-2.92 6.08-6.464 7.984-10.528 1.024.024 2.04.12 3.072.12 33.64 0 65.064-15.024 86.224-41.216l-12.448-10.048c-18.104 22.416-45 35.272-73.776 35.272-.08 0-.16-.008-.248-.008-.656-8.608-4.672-16.216-10.816-21.576 3.368-2.944 6.136-6.528 8.04-10.632 1.008.048 2.008.224 3.016.224 34.624 0 62.792-28.168 62.792-62.792s-28.16-62.816-62.784-62.816c-11.336 0-22.376 3.16-32 8.856v-35.2c10.24-3.68 20.96-5.656 32-5.656 52.272 0 94.792 42.52 94.792 94.792 0 15.856-3.992 31.552-11.544 45.376zm-129.288-35.84h-64-16c-8.824 0-16-7.176-16-16s7.176-16 16-16h80c8.824 0 16 7.176 16 16s-7.176 16-16 16zm-80-48c-17.648 0-32 14.352-32 32 0 13.952 9.024 25.712 21.504 30.088-3.472 5.112-5.504 11.28-5.504 17.912 0 13.952 9.024 25.712 21.496 30.088-3.464 5.112-5.496 11.28-5.496 17.912h-144v-8-16-8h40c17.648 0 32-14.352 32-32s-14.352-32-32-32h-40v-128h208v96zm-144 144h148.448c3.808 6.536 9.808 11.552 17.048 14.088-3.464 5.112-5.496 11.28-5.496 17.912 0 5.856 1.696 11.272 4.448 16h-140.448c-13.232 0-24-10.768-24-24zm24-288h160c13.232 0 24 10.768 24 24v8h-208v-8c0-13.232 10.768-24 24-24zm174.056 406.624-22.056 22.064v35.312h-152v-35.312l-2.344-2.344c-34.6-34.6-53.656-80.608-53.656-129.536v-80.808c0-13.232 10.768-24 24-24h48c8.824 0 16 7.176 16 16s-7.176 16-16 16h-40c-8.824 0-16 7.176-16 16v8 16 48c0 22.056 17.944 40 40 40h168 31.608c-1.832 20.632-10.728 39.8-25.552 54.624zm41.944-86.624c0 8.824-7.176 16-16 16h-32c-8.824 0-16-7.176-16-16s7.176-16 16-16h32c8.824 0 16 7.176 16 16zm0-48c0 8.824-7.176 16-16 16h-32-16c-8.824 0-16-7.176-16-16s7.176-16 16-16h48c8.824 0 16 7.176 16 16zm-64-32h-16c-8.824 0-16-7.176-16-16s7.176-16 16-16h64c8.824 0 16 7.176 16 16s-7.176 16-16 16zm80-112c25.8 0 46.792 20.992 46.792 46.792s-20.992 46.792-46.792 46.792c-.08 0-.168-.016-.248-.016-.664-8.6-4.68-16.208-10.816-21.568 6.728-5.872 11.064-14.4 11.064-24 0-17.648-14.352-32-32-32v-3.272c8.696-8.2 19.928-12.728 32-12.728z"/></g></svg>