<svg enable-background="new 0 0 480 480" viewBox="0 0 480 480" xmlns="http://www.w3.org/2000/svg"><path d="m320 120c4.418 0 8-3.582 8-8v-80c0-17.673-14.327-32-32-32h-208c-17.673 0-32 14.327-32 32v408c.026 22.08 17.92 39.974 40 40h192c22.08-.026 39.974-17.92 40-40v-72c0-4.418-3.582-8-8-8s-8 3.582-8 8v48h-240v-352h240v48c0 4.418 3.582 8 8 8zm-8 312v8c0 13.255-10.745 24-24 24h-192c-13.255 0-24-10.745-24-24v-8zm-240-384v-16c0-8.837 7.163-16 16-16h208c8.837 0 16 7.163 16 16v16z"/><path d="m208 440h-32c-4.418 0-8 3.582-8 8s3.582 8 8 8h32c4.418 0 8-3.582 8-8s-3.582-8-8-8z"/><path d="m312 128c-61.828.066-111.934 50.172-112 112v112c0 3.348 2.084 6.342 5.224 7.504.89.324 1.829.492 2.776.496 2.339 0 4.56-1.023 6.08-2.8l26.568-31.04c20.006 16.734 45.27 25.884 71.352 25.84 61.856 0 112-50.144 112-112s-50.144-112-112-112zm0 208c-24.864.072-48.767-9.601-66.584-26.944-.064-.064-.152-.08-.208-.136s-.096-.144-.16-.2c-.367-.25-.755-.467-1.16-.648-.442-.313-.913-.581-1.408-.8-.451-.12-.911-.2-1.376-.24-.543-.127-1.098-.192-1.656-.192-.439.055-.872.146-1.296.272-.568.088-1.123.241-1.656.456-.431.23-.84.498-1.224.8-.413.23-.804.498-1.168.8-.064.064-.08.152-.136.216s-.144.088-.2.152l-17.768 20.816v-90.352c0-53.019 42.981-96 96-96s96 42.981 96 96-42.981 96-96 96z"/><path d="m312 216c-13.255 0-24 10.745-24 24s10.745 24 24 24 24-10.745 24-24-10.745-24-24-24zm0 32c-4.418 0-8-3.582-8-8s3.582-8 8-8 8 3.582 8 8-3.582 8-8 8z"/><path d="m256 216c-13.255 0-24 10.745-24 24s10.745 24 24 24 24-10.745 24-24-10.745-24-24-24zm0 32c-4.418 0-8-3.582-8-8s3.582-8 8-8 8 3.582 8 8-3.582 8-8 8z"/><path d="m368 216c-13.255 0-24 10.745-24 24s10.745 24 24 24 24-10.745 24-24-10.745-24-24-24zm0 32c-4.418 0-8-3.582-8-8s3.582-8 8-8 8 3.582 8 8-3.582 8-8 8z"/></svg>